<mxfile host="app.diagrams.net" modified="2024-03-11T02:00:41.409Z" agent="Mozilla/5.0 (Macintosh; Intel Mac OS X 10_15_7) AppleWebKit/605.1.15 (KHTML, like Gecko) Version/17.2.1 Safari/605.1.15" version="23.1.6" etag="ciKAksnYZo9T4JFfUn67" type="github">
  <diagram name="ページ1" id="frAd9zVA6C1hqHkERggT">
    <mxGraphModel>
      <root>
        <mxCell id="0" />
        <mxCell id="1" parent="0" />
      </root>
    </mxGraphModel>
  </diagram>
</mxfile>
